<svg xmlns="http://www.w3.org/2000/svg" width="48" height="48" viewBox="0 0 48 48">
  <metadata><?xpacket begin="﻿" id="W5M0MpCehiHzreSzNTczkc9d"?>
<x:xmpmeta xmlns:x="adobe:ns:meta/" x:xmptk="Adobe XMP Core 5.6-c142 79.160924, 2017/07/13-01:06:39        ">
   <rdf:RDF xmlns:rdf="http://www.w3.org/1999/02/22-rdf-syntax-ns#">
      <rdf:Description rdf:about=""/>
   </rdf:RDF>
</x:xmpmeta>
                                                                                                    
                                                                                                    
                                                                                                    
                                                                                                    
                                                                                                    
                                                                                                    
                                                                                                    
                                                                                                    
                                                                                                    
                                                                                                    
                                                                                                    
                                                                                                    
                                                                                                    
                                                                                                    
                                                                                                    
                                                                                                    
                                                                                                    
                                                                                                    
                                                                                                    
                                                                                                    
                           
<?xpacket end="w"?></metadata>
<defs>
    <style>
      .cls-1 {
        fill: #fc5f45;
        fill-rule: evenodd;
      }
    </style>
  </defs>
  <path id="_" data-name="" class="cls-1" d="M48.988,0V47.988H1.005V0H48.988ZM2.995,1.993V11H47V1.993h-44ZM47,46v-33h-44V46H47ZM15.985,8.079h3.043V5.036H15.985V8.079Zm14.98,0h3.043V5.036H30.965V8.079Zm-12.756,11.7h1.755V35.465H17.858V24.347H14V22.708h0.351q1.519-.115,2.048-0.175a1.951,1.951,0,0,0,1.112-.643,2.8,2.8,0,0,0,.7-1.756V19.783Zm15.624,6.554a5.506,5.506,0,0,1,1.463,3.98,5.227,5.227,0,0,1-1.638,3.92,5.383,5.383,0,0,1-3.862,1.58,5.26,5.26,0,0,1-3.8-1.4,4.8,4.8,0,0,1-1.463-3.628V30.433h2.107v0.351a2.981,2.981,0,0,0,.936,2.282,3.287,3.287,0,0,0,2.341.878,2.89,2.89,0,0,0,2.4-1.112,4.12,4.12,0,0,0,.878-2.633,3.531,3.531,0,0,0-.936-2.516,3.226,3.226,0,0,0-2.458-.995,3.4,3.4,0,0,0-3.043,1.638l-0.117.117H24.879l1.638-8.426h8.075v1.99H28.039l-0.7,3.628a4.4,4.4,0,0,1,2.575-.819A5.192,5.192,0,0,1,33.832,26.336Z" transform="translate(-1)"/>
</svg>
