<svg xmlns="http://www.w3.org/2000/svg" width="30" height="23.969" viewBox="0 0 30 23.969">
  <metadata><?xpacket begin="﻿" id="W5M0MpCehiHzreSzNTczkc9d"?>
<x:xmpmeta xmlns:x="adobe:ns:meta/" x:xmptk="Adobe XMP Core 5.6-c142 79.160924, 2017/07/13-01:06:39        ">
   <rdf:RDF xmlns:rdf="http://www.w3.org/1999/02/22-rdf-syntax-ns#">
      <rdf:Description rdf:about=""/>
   </rdf:RDF>
</x:xmpmeta>
                                                                                                    
                                                                                                    
                                                                                                    
                                                                                                    
                                                                                                    
                                                                                                    
                                                                                                    
                                                                                                    
                                                                                                    
                                                                                                    
                                                                                                    
                                                                                                    
                                                                                                    
                                                                                                    
                                                                                                    
                                                                                                    
                                                                                                    
                                                                                                    
                                                                                                    
                                                                                                    
                           
<?xpacket end="w"?></metadata>
<defs>
    <style>
      .cls-1 {
        fill: #fff;
        fill-rule: evenodd;
      }
    </style>
  </defs>
  <path id="_" data-name="" class="cls-1" d="M30.883,4.625A4.038,4.038,0,0,1,30,5.845a3.442,3.442,0,0,0-1.258,1.3,5.785,5.785,0,0,0-.585,1.443,15.448,15.448,0,0,0-.263,1.693,15.783,15.783,0,0,1-4.3,9.156,16.734,16.734,0,0,1-9.043,5.1A17.358,17.358,0,0,1,1.909,22.658a1.416,1.416,0,0,0-.322-0.166,1.321,1.321,0,0,1-.322-0.167,2.221,2.221,0,0,1-.2-0.25,0.244,0.244,0,0,1,.029-0.361,0.462,0.462,0,0,1,.2-0.3,0.42,0.42,0,0,1,.293-0.056c0.1,0.02.214,0.037,0.351,0.056a2.48,2.48,0,0,0,.322.027,11.922,11.922,0,0,0,5.385-.444q0.878-.221,1.054.278,0.117,0.5-.7.721-0.527.166-1.551,0.416t-1.61.416a15.434,15.434,0,0,0,6.38,1.11,16.024,16.024,0,0,0,10.536-4.189,16.231,16.231,0,0,0,5.034-9.239A4.461,4.461,0,0,0,26.9,9.73V8.592c0-.092.009-0.277,0.029-0.555a1.6,1.6,0,0,1,.117-0.583,4.667,4.667,0,0,0,.2-0.471,1.094,1.094,0,0,1,.322-0.472q0.2-.166.5-0.361a5.213,5.213,0,0,1,.644-0.361,0.874,0.874,0,0,1-.234-0.167l-0.117-.055a2.26,2.26,0,0,0-.556.111,1.7,1.7,0,0,1-.644.083A0.583,0.583,0,0,1,26.727,5.4,0.474,0.474,0,0,1,26.7,4.875a1.575,1.575,0,0,1,.5-0.389,2.537,2.537,0,0,0,.468-0.305l0.351-.5-0.176-.167a3.645,3.645,0,0,1-3.512-.555,4.956,4.956,0,0,0-5.239-.222A4.8,4.8,0,0,0,16.25,7.066a3.853,3.853,0,0,1-.41,1.97,3.972,3.972,0,0,1-2.166-.083A19.779,19.779,0,0,1,3.841,3.959,3.33,3.33,0,0,0,3.4,6.623,5.579,5.579,0,0,0,4.894,9.4a2.507,2.507,0,0,0,.468.305,0.955,0.955,0,0,1,.41.333,1.153,1.153,0,0,1,0,.527,0.673,0.673,0,0,1-.439.389,1.44,1.44,0,0,1-.7-0.083,2.469,2.469,0,0,0-.615-0.139,5.753,5.753,0,0,0-.644-0.167,5.178,5.178,0,0,0,3.278,4.05l0.468,0.111A1.12,1.12,0,0,1,7.762,15a0.554,0.554,0,0,1,.059.444q-0.118.5-1.522,0.61l-0.585.111a5.131,5.131,0,0,0,3.571,2.663h0.41a3.425,3.425,0,0,1,.351.055,1.95,1.95,0,0,1,.41.111,0.746,0.746,0,0,1,.234.194,0.478,0.478,0,0,1,.059.417q-0.118.611-1.229,0.333a6.24,6.24,0,0,1-4.39-2.719,2.543,2.543,0,0,1-.234-0.3,3.793,3.793,0,0,1-.234-0.361c-0.039-.074-0.1-0.185-0.176-0.333a0.848,0.848,0,0,1-.117-0.388A2.913,2.913,0,0,1,4.4,15.445,1.305,1.305,0,0,1,4.543,15a1.013,1.013,0,0,1,.029-0.333,0.521,0.521,0,0,0-.263-0.278l-0.234-.166A6.151,6.151,0,0,1,2.2,10.673a2.8,2.8,0,0,0-.059-0.333,2.553,2.553,0,0,1-.059-0.333V9.757A0.369,0.369,0,0,1,2.173,9.48a1.048,1.048,0,0,1,.263-0.167A2,2,0,0,1,2.9,9.174c0.351-.036.39-0.222,0.117-0.555A0.3,0.3,0,0,1,2.9,8.453,6.094,6.094,0,0,1,2.67,3.237a1.366,1.366,0,0,1,.732-1A1.6,1.6,0,0,1,4.485,2.9,16.944,16.944,0,0,0,13.44,7.9a1.987,1.987,0,0,0,1.229-.028,1.212,1.212,0,0,0,.41-1.026,6.584,6.584,0,0,1,3.453-5.05,5.62,5.62,0,0,1,5.795,0,4.343,4.343,0,0,0,4.624,0,0.986,0.986,0,0,1,1.112,0,0.822,0.822,0,0,1-.117,1,2.772,2.772,0,0,1-.234.555,4.058,4.058,0,0,0-.234.5,0.564,0.564,0,0,0,.644.055,1.016,1.016,0,0,1,.234-0.055h0q0.936,0,.527.777h0Z" transform="translate(-1 -1)"/>
</svg>
