<svg xmlns="http://www.w3.org/2000/svg" width="30" height="30" viewBox="0 0 30 30">
  <metadata><?xpacket begin="﻿" id="W5M0MpCehiHzreSzNTczkc9d"?>
<x:xmpmeta xmlns:x="adobe:ns:meta/" x:xmptk="Adobe XMP Core 5.6-c142 79.160924, 2017/07/13-01:06:39        ">
   <rdf:RDF xmlns:rdf="http://www.w3.org/1999/02/22-rdf-syntax-ns#">
      <rdf:Description rdf:about=""/>
   </rdf:RDF>
</x:xmpmeta>
                                                                                                    
                                                                                                    
                                                                                                    
                                                                                                    
                                                                                                    
                                                                                                    
                                                                                                    
                                                                                                    
                                                                                                    
                                                                                                    
                                                                                                    
                                                                                                    
                                                                                                    
                                                                                                    
                                                                                                    
                                                                                                    
                                                                                                    
                                                                                                    
                                                                                                    
                                                                                                    
                           
<?xpacket end="w"?></metadata>
<defs>
    <style>
      .cls-1 {
        fill: #fff;
        fill-rule: evenodd;
      }
    </style>
  </defs>
  <path id="_" data-name="" class="cls-1" d="M29.3,0.719a3.511,3.511,0,0,1,.709,2.519q0,15.644-.059,23.5a3.528,3.528,0,0,1-.739,2.548,3.6,3.6,0,0,1-2.57.733H16.891a2.206,2.206,0,0,1-1.418-.352,1.59,1.59,0,0,1-.354-1.347V23.247q0-3.368.059-5.068a1.815,1.815,0,0,0-.3-1.2,1.375,1.375,0,0,0-1.123-.263,12.81,12.81,0,0,1-2.482,0q-0.709,0-.709-0.528a0.579,0.579,0,0,1,.709-0.586H14a1.15,1.15,0,0,0,.975-0.234,1.2,1.2,0,0,0,.207-0.938,22.621,22.621,0,0,1,0-3.281,3.431,3.431,0,0,1,1.241-2.783,3.875,3.875,0,0,1,3.072-.615,8.11,8.11,0,0,1,2.659.762,0.174,0.174,0,0,1,.118.058q0.767,0.352.591,0.82-0.3.645-1.241,0.234a7.376,7.376,0,0,0-2.954-.7,1.952,1.952,0,0,0-2.127,1.7,6.014,6.014,0,0,0-.207,1.348q-0.03.7,0,1.582c0.019,0.586.03,1.036,0.03,1.347v0.234C16.4,15.446,16.714,15.6,17.3,15.6h4.55q1,0,1,.586,0,0.822-1.064.7-1.418,0-4.49-.117a0.921,0.921,0,0,0-.8.176,1.247,1.247,0,0,0-.207.82q0.118,4.864,0,9.785a0.963,0.963,0,0,0,1.063,1.114q1.418,0,2.954.029t3.427,0.088q1.89,0.059,2.954.058a2.165,2.165,0,0,0,1.536-.381,2.709,2.709,0,0,0,.414-1.611l0.177-23.2a3.03,3.03,0,0,0-.355-1.9,3.887,3.887,0,0,0-2.009-.381Q18.841,1.13,3.478,1.128a2.718,2.718,0,0,0-1.714.322,3.633,3.633,0,0,0-.414,1.787q0,0.058-.177,23.086a2.98,2.98,0,0,0,.384,1.934,3.264,3.264,0,0,0,1.92.351q3.426,0,5.081.059,1.241,0,1.3.586,0,0.7-1.241.7H2.651A2.534,2.534,0,0,1-.008,27.2V15.074H0.051V3.121A3.412,3.412,0,0,1,.76.66,3.215,3.215,0,0,1,3.183.015H26.758A3.584,3.584,0,0,1,29.3.719Z"/>
</svg>
