<svg xmlns="http://www.w3.org/2000/svg" width="40" height="40" viewBox="0 0 40 40">
  <metadata><?xpacket begin="﻿" id="W5M0MpCehiHzreSzNTczkc9d"?>
<x:xmpmeta xmlns:x="adobe:ns:meta/" x:xmptk="Adobe XMP Core 5.6-c142 79.160924, 2017/07/13-01:06:39        ">
   <rdf:RDF xmlns:rdf="http://www.w3.org/1999/02/22-rdf-syntax-ns#">
      <rdf:Description rdf:about=""/>
   </rdf:RDF>
</x:xmpmeta>
                                                                                                    
                                                                                                    
                                                                                                    
                                                                                                    
                                                                                                    
                                                                                                    
                                                                                                    
                                                                                                    
                                                                                                    
                                                                                                    
                                                                                                    
                                                                                                    
                                                                                                    
                                                                                                    
                                                                                                    
                                                                                                    
                                                                                                    
                                                                                                    
                                                                                                    
                                                                                                    
                           
<?xpacket end="w"?></metadata>
<defs>
    <style>
      .cls-1 {
        fill: #feb960;
        fill-rule: evenodd;
      }
    </style>
  </defs>
  <path id="_" data-name="" class="cls-1" d="M39.987,20.007A19.278,19.278,0,0,1,34.12,34.143a19.252,19.252,0,0,1-14.127,5.871A19.247,19.247,0,0,1,5.866,34.143,19.272,19.272,0,0,1,0,20.007,19.277,19.277,0,0,1,5.866,5.87,19.253,19.253,0,0,1,19.993,0,19.258,19.258,0,0,1,34.12,5.87,19.283,19.283,0,0,1,39.987,20.007Zm-1.6,0A17.744,17.744,0,0,0,32.994,7a17.718,17.718,0,0,0-13-5.4,17.715,17.715,0,0,0-13,5.4,17.738,17.738,0,0,0-5.4,13.01,17.735,17.735,0,0,0,5.4,13.009,17.712,17.712,0,0,0,13,5.4,17.715,17.715,0,0,0,13-5.4A17.741,17.741,0,0,0,38.391,20.007Zm-6.665-7.139a1.028,1.028,0,0,1-.094,1.691L17.928,27.9a1.016,1.016,0,0,1-.751.282,1.147,1.147,0,0,1-.845-0.282l-5.35-5.354a1.057,1.057,0,0,1,0-1.69,1.056,1.056,0,0,1,1.69,0l4.506,4.508,12.86-12.493A1.056,1.056,0,0,1,31.727,12.868Z"/>
</svg>
