<svg xmlns="http://www.w3.org/2000/svg" width="40" height="40" viewBox="0 0 40 40">
  <metadata><?xpacket begin="﻿" id="W5M0MpCehiHzreSzNTczkc9d"?>
<x:xmpmeta xmlns:x="adobe:ns:meta/" x:xmptk="Adobe XMP Core 5.6-c142 79.160924, 2017/07/13-01:06:39        ">
   <rdf:RDF xmlns:rdf="http://www.w3.org/1999/02/22-rdf-syntax-ns#">
      <rdf:Description rdf:about=""/>
   </rdf:RDF>
</x:xmpmeta>
                                                                                                    
                                                                                                    
                                                                                                    
                                                                                                    
                                                                                                    
                                                                                                    
                                                                                                    
                                                                                                    
                                                                                                    
                                                                                                    
                                                                                                    
                                                                                                    
                                                                                                    
                                                                                                    
                                                                                                    
                                                                                                    
                                                                                                    
                                                                                                    
                                                                                                    
                                                                                                    
                           
<?xpacket end="w"?></metadata>
<defs>
    <style>
      .cls-1 {
        fill: #b27cf5;
        fill-rule: evenodd;
      }
    </style>
  </defs>
  <path id="_" data-name="" class="cls-1" d="M2.655,20a17.7,17.7,0,0,0,5.35,13.008,17.7,17.7,0,0,0,13,5.351,17.7,17.7,0,0,0,13-5.351A17.71,17.71,0,0,0,39.365,20a17.714,17.714,0,0,0-5.35-13.008,17.707,17.707,0,0,0-13-5.351,17.7,17.7,0,0,0-13,5.351A17.709,17.709,0,0,0,2.655,20ZM41,20a19.269,19.269,0,0,1-5.858,14.14A19.263,19.263,0,0,1,21.01,40,19.262,19.262,0,0,1,6.872,34.14,19.269,19.269,0,0,1,1.014,20,19.272,19.272,0,0,1,6.872,5.859,19.262,19.262,0,0,1,21.01,0a19.264,19.264,0,0,1,14.137,5.86A19.272,19.272,0,0,1,41,20ZM33.35,12.343l-1.328-1.328L21.01,22.187l-7.654-7.812L12.027,15.7l8.982,8.828ZM21.01,3.671A1.334,1.334,0,0,0,19.682,5a1.328,1.328,0,1,0,2.265-.938A1.283,1.283,0,0,0,21.01,3.671Zm0,30a1.334,1.334,0,1,0,.937.391A1.276,1.276,0,0,0,21.01,33.672Zm-15-15a1.328,1.328,0,1,0,.937,2.266A1.328,1.328,0,0,0,6.013,18.671Zm29.993,0a1.334,1.334,0,1,0,.937.391A1.278,1.278,0,0,0,36.006,18.671Z" transform="translate(-1)"/>
</svg>
