<svg xmlns="http://www.w3.org/2000/svg" width="40" height="40" viewBox="0 0 40 40">
  <metadata><?xpacket begin="﻿" id="W5M0MpCehiHzreSzNTczkc9d"?>
<x:xmpmeta xmlns:x="adobe:ns:meta/" x:xmptk="Adobe XMP Core 5.6-c142 79.160924, 2017/07/13-01:06:39        ">
   <rdf:RDF xmlns:rdf="http://www.w3.org/1999/02/22-rdf-syntax-ns#">
      <rdf:Description rdf:about=""/>
   </rdf:RDF>
</x:xmpmeta>
                                                                                                    
                                                                                                    
                                                                                                    
                                                                                                    
                                                                                                    
                                                                                                    
                                                                                                    
                                                                                                    
                                                                                                    
                                                                                                    
                                                                                                    
                                                                                                    
                                                                                                    
                                                                                                    
                                                                                                    
                                                                                                    
                                                                                                    
                                                                                                    
                                                                                                    
                                                                                                    
                           
<?xpacket end="w"?></metadata>
<defs>
    <style>
      .cls-1 {
        fill: #38c695;
        fill-rule: evenodd;
      }
    </style>
  </defs>
  <path id="_" data-name="" class="cls-1" d="M39.989,20A19.267,19.267,0,0,1,34.13,34.14,19.268,19.268,0,0,1,19.991,40a19.266,19.266,0,0,1-14.14-5.86A19.268,19.268,0,0,1-.007,20,19.271,19.271,0,0,1,5.851,5.859,19.266,19.266,0,0,1,19.991,0,19.268,19.268,0,0,1,34.13,5.859,19.27,19.27,0,0,1,39.989,20Zm-1.641,0A17.712,17.712,0,0,0,33,6.992,17.711,17.711,0,0,0,19.991,1.64,17.707,17.707,0,0,0,6.984,6.992,17.708,17.708,0,0,0,1.633,20,17.7,17.7,0,0,0,6.984,33.007a17.7,17.7,0,0,0,13.007,5.351A17.7,17.7,0,0,0,33,33.007,17.708,17.708,0,0,0,38.349,20Zm-20.9-2.5a16.608,16.608,0,0,0,3.906,1.758A11.5,11.5,0,0,1,25.3,21.406a4.9,4.9,0,0,1,1.875,3.75,4.987,4.987,0,0,1-1.562,3.71,7.1,7.1,0,0,1-4.3,1.836v2.657h-1.8V30.468q-4.218-.156-6.328-2.5l1.328-1.485,0.625,0.547A7.523,7.523,0,0,0,17.3,28.242a7.94,7.94,0,0,0,3.008.586,5.215,5.215,0,0,0,3.242-.976,3.042,3.042,0,0,0,1.289-2.539,3.415,3.415,0,0,0-1.758-2.89,14.113,14.113,0,0,0-3.906-1.8,10.857,10.857,0,0,1-3.906-2.07A4.436,4.436,0,0,1,13.507,15a4.955,4.955,0,0,1,1.641-3.632,6.616,6.616,0,0,1,4.14-1.836V6.641h1.875v2.89a7.727,7.727,0,0,1,5.312,1.953L25.3,13.2l-0.625-.469A7.787,7.787,0,0,0,22.8,11.8a7.081,7.081,0,0,0-2.5-.469,5.208,5.208,0,0,0-3.32,1.016,3.077,3.077,0,0,0-1.289,2.5A3.135,3.135,0,0,0,17.452,17.5Z"/>
</svg>
