<svg xmlns="http://www.w3.org/2000/svg" width="50" height="43" viewBox="0 0 50 43">
  <metadata><?xpacket begin="﻿" id="W5M0MpCehiHzreSzNTczkc9d"?>
<x:xmpmeta xmlns:x="adobe:ns:meta/" x:xmptk="Adobe XMP Core 5.6-c142 79.160924, 2017/07/13-01:06:39        ">
   <rdf:RDF xmlns:rdf="http://www.w3.org/1999/02/22-rdf-syntax-ns#">
      <rdf:Description rdf:about=""/>
   </rdf:RDF>
</x:xmpmeta>
                                                                                                    
                                                                                                    
                                                                                                    
                                                                                                    
                                                                                                    
                                                                                                    
                                                                                                    
                                                                                                    
                                                                                                    
                                                                                                    
                                                                                                    
                                                                                                    
                                                                                                    
                                                                                                    
                                                                                                    
                                                                                                    
                                                                                                    
                                                                                                    
                                                                                                    
                                                                                                    
                           
<?xpacket end="w"?></metadata>
<defs>
    <style>
      .cls-1 {
        fill: #b27cf5;
        fill-rule: evenodd;
      }
    </style>
  </defs>
  <path id="_" data-name="" class="cls-1" d="M50.988,14.359a13.045,13.045,0,0,1-3.9,9.519L26,44,4.919,24.076a13.43,13.43,0,0,1-3.9-9.668A13.247,13.247,0,0,1,14.679.991a12.665,12.665,0,0,1,9.37,3.848A30.951,30.951,0,0,1,26.2,7.8a11.381,11.381,0,0,1,2.147-2.96A12.666,12.666,0,0,1,37.714.991a12.666,12.666,0,0,1,9.37,3.848A13.05,13.05,0,0,1,50.988,14.359Zm-2.147-.247a11.088,11.088,0,0,0-3.318-8.09,10.457,10.457,0,0,0-8-3.354,10.966,10.966,0,0,0-8.1,3.354q-0.782.987-1.659,2.269L26,11.251l-1.757-2.96a18.053,18.053,0,0,0-1.659-2.269,10.97,10.97,0,0,0-8.1-3.354,10.972,10.972,0,0,0-8.2,3.551,11.083,11.083,0,0,0-3.319,8.09A11.2,11.2,0,0,0,6.285,22.5L26,41.538,45.718,22.5a11.4,11.4,0,0,0,3.123-8.385h0Z" transform="translate(-1 -1)"/>
</svg>
