<svg xmlns="http://www.w3.org/2000/svg" width="15" height="15" viewBox="0 0 15 15">
  <metadata><?xpacket begin="﻿" id="W5M0MpCehiHzreSzNTczkc9d"?>
<x:xmpmeta xmlns:x="adobe:ns:meta/" x:xmptk="Adobe XMP Core 5.6-c142 79.160924, 2017/07/13-01:06:39        ">
   <rdf:RDF xmlns:rdf="http://www.w3.org/1999/02/22-rdf-syntax-ns#">
      <rdf:Description rdf:about=""/>
   </rdf:RDF>
</x:xmpmeta>
                                                                                                    
                                                                                                    
                                                                                                    
                                                                                                    
                                                                                                    
                                                                                                    
                                                                                                    
                                                                                                    
                                                                                                    
                                                                                                    
                                                                                                    
                                                                                                    
                                                                                                    
                                                                                                    
                                                                                                    
                                                                                                    
                                                                                                    
                                                                                                    
                                                                                                    
                                                                                                    
                           
<?xpacket end="w"?></metadata>
<defs>
    <style>
      .cls-1 {
        fill: #b27cf5;
        fill-rule: evenodd;
      }
    </style>
  </defs>
  <path id="_" data-name="" class="cls-1" d="M15,7.5a7.253,7.253,0,0,1-2.186,5.322A7.217,7.217,0,0,1,7.5,15.013a7.215,7.215,0,0,1-5.309-2.192A7.251,7.251,0,0,1,.006,7.5,7.256,7.256,0,0,1,2.192,2.176,7.221,7.221,0,0,1,7.5-.015a7.222,7.222,0,0,1,5.309,2.191A7.258,7.258,0,0,1,15,7.5Zm-1.249,0a6.038,6.038,0,0,0-1.835-4.422A6.008,6.008,0,0,0,7.5,1.237,6.007,6.007,0,0,0,3.09,3.077,6.036,6.036,0,0,0,1.255,7.5,6.036,6.036,0,0,0,3.09,11.921,6.007,6.007,0,0,0,7.5,13.761a6.008,6.008,0,0,0,4.411-1.839A6.039,6.039,0,0,0,13.748,7.5ZM7.5,3.742a3.614,3.614,0,0,1,2.655,1.1A3.631,3.631,0,0,1,11.249,7.5a3.627,3.627,0,0,1-1.093,2.661,3.61,3.61,0,0,1-2.655,1.1,3.608,3.608,0,0,1-2.655-1.1A3.624,3.624,0,0,1,3.754,7.5,3.628,3.628,0,0,1,4.847,4.837,3.612,3.612,0,0,1,7.5,3.742Z"/>
</svg>
