<svg xmlns="http://www.w3.org/2000/svg" width="36" height="36" viewBox="0 0 36 36">
  <metadata><?xpacket begin="﻿" id="W5M0MpCehiHzreSzNTczkc9d"?>
<x:xmpmeta xmlns:x="adobe:ns:meta/" x:xmptk="Adobe XMP Core 5.6-c142 79.160924, 2017/07/13-01:06:39        ">
   <rdf:RDF xmlns:rdf="http://www.w3.org/1999/02/22-rdf-syntax-ns#">
      <rdf:Description rdf:about=""/>
   </rdf:RDF>
</x:xmpmeta>
                                                                                                    
                                                                                                    
                                                                                                    
                                                                                                    
                                                                                                    
                                                                                                    
                                                                                                    
                                                                                                    
                                                                                                    
                                                                                                    
                                                                                                    
                                                                                                    
                                                                                                    
                                                                                                    
                                                                                                    
                                                                                                    
                                                                                                    
                                                                                                    
                                                                                                    
                                                                                                    
                           
<?xpacket end="w"?></metadata>
<defs>
    <style>
      .cls-1 {
        fill: #fc5f45;
        fill-rule: evenodd;
      }
    </style>
  </defs>
  <path id="_" data-name="" class="cls-1" d="M36,5.513a5.5,5.5,0,0,1-1.565,3.973,5.21,5.21,0,0,1-8.374-1.135L10.487,15.162a7.8,7.8,0,0,1,.157,1.459,6.089,6.089,0,0,1-.626,2.676l10.018,7.459a5.131,5.131,0,0,1,3.991-1.865,4.985,4.985,0,0,1,3.756,1.662,5.55,5.55,0,0,1,1.565,3.933,5.406,5.406,0,0,1-1.565,3.892,5.163,5.163,0,0,1-7.513,0A5.4,5.4,0,0,1,18.7,30.486a5.574,5.574,0,0,1,.548-2.594L9.235,20.351a4.99,4.99,0,0,1-3.913,1.784,5.1,5.1,0,0,1-3.757-1.581A5.363,5.363,0,0,1,0,16.621a5.364,5.364,0,0,1,1.565-3.932,5.1,5.1,0,0,1,3.757-1.581,4.909,4.909,0,0,1,4.617,2.756L25.591,7.054a5,5,0,0,1-.235-1.541,5.4,5.4,0,0,1,1.565-3.892,5.161,5.161,0,0,1,7.513,0A5.409,5.409,0,0,1,36,5.513h0ZM20.035,30.486A4.053,4.053,0,0,0,21.209,33.4a3.871,3.871,0,0,0,5.635,0,4.054,4.054,0,0,0,1.174-2.919,4.153,4.153,0,0,0-1.174-3,3.871,3.871,0,0,0-5.635,0,4.153,4.153,0,0,0-1.174,3h0ZM9.313,16.621A4.054,4.054,0,0,0,8.139,13.7a3.776,3.776,0,0,0-2.817-1.216A3.777,3.777,0,0,0,2.5,13.7a4.216,4.216,0,0,0,0,5.838,3.779,3.779,0,0,0,2.817,1.216,3.779,3.779,0,0,0,2.817-1.216A4.055,4.055,0,0,0,9.313,16.621ZM34.67,5.513A4.053,4.053,0,0,0,33.5,2.594a3.871,3.871,0,0,0-5.635,0,4.054,4.054,0,0,0-1.174,2.919,4.151,4.151,0,0,0,1.174,3,3.871,3.871,0,0,0,5.635,0,4.15,4.15,0,0,0,1.174-3h0Z"/>
</svg>
