<svg xmlns="http://www.w3.org/2000/svg" width="15" height="15" viewBox="0 0 15 15">
  <metadata><?xpacket begin="﻿" id="W5M0MpCehiHzreSzNTczkc9d"?>
<x:xmpmeta xmlns:x="adobe:ns:meta/" x:xmptk="Adobe XMP Core 5.6-c142 79.160924, 2017/07/13-01:06:39        ">
   <rdf:RDF xmlns:rdf="http://www.w3.org/1999/02/22-rdf-syntax-ns#">
      <rdf:Description rdf:about=""/>
   </rdf:RDF>
</x:xmpmeta>
                                                                                                    
                                                                                                    
                                                                                                    
                                                                                                    
                                                                                                    
                                                                                                    
                                                                                                    
                                                                                                    
                                                                                                    
                                                                                                    
                                                                                                    
                                                                                                    
                                                                                                    
                                                                                                    
                                                                                                    
                                                                                                    
                                                                                                    
                                                                                                    
                                                                                                    
                                                                                                    
                           
<?xpacket end="w"?></metadata>
<defs>
    <style>
      .cls-1 {
        fill: #616161;
        fill-rule: evenodd;
      }
    </style>
  </defs>
  <path id="_" data-name="" class="cls-1" d="M14.18,0.82A2.714,2.714,0,0,1,15,2.812v9.375A2.8,2.8,0,0,1,12.188,15H2.812A2.712,2.712,0,0,1,.82,14.179,2.71,2.71,0,0,1,0,12.187V2.812A2.712,2.712,0,0,1,.82.82,2.712,2.712,0,0,1,2.812,0h9.375A2.713,2.713,0,0,1,14.18.82ZM5.625,4.57H3.75v6.562H5.625V4.57Zm0-1.289a0.868,0.868,0,0,0-.249-0.615,0.883,0.883,0,0,0-1.26,0,0.866,0.866,0,0,0-.249.615,0.852,0.852,0,0,0,.879.878,0.852,0.852,0,0,0,.879-0.878h0Zm6.563,3.837A3.819,3.819,0,0,0,11.982,5.8a1.715,1.715,0,0,0-.513-0.791,2.319,2.319,0,0,0-.586-0.337,1.644,1.644,0,0,0-.571-0.1,2.962,2.962,0,0,0-1.875.615V4.57H6.562v6.562H8.437V7.09l0.059-.2a1.066,1.066,0,0,1,.366-0.41,1.18,1.18,0,0,1,.718-0.2,0.689,0.689,0,0,1,.732.82v4.043h1.875V7.118Z"/>
</svg>
