<svg xmlns="http://www.w3.org/2000/svg" width="15" height="15" viewBox="0 0 15 15">
  <metadata><?xpacket begin="﻿" id="W5M0MpCehiHzreSzNTczkc9d"?>
<x:xmpmeta xmlns:x="adobe:ns:meta/" x:xmptk="Adobe XMP Core 5.6-c142 79.160924, 2017/07/13-01:06:39        ">
   <rdf:RDF xmlns:rdf="http://www.w3.org/1999/02/22-rdf-syntax-ns#">
      <rdf:Description rdf:about=""/>
   </rdf:RDF>
</x:xmpmeta>
                                                                                                    
                                                                                                    
                                                                                                    
                                                                                                    
                                                                                                    
                                                                                                    
                                                                                                    
                                                                                                    
                                                                                                    
                                                                                                    
                                                                                                    
                                                                                                    
                                                                                                    
                                                                                                    
                                                                                                    
                                                                                                    
                                                                                                    
                                                                                                    
                                                                                                    
                                                                                                    
                           
<?xpacket end="w"?></metadata>
<defs>
    <style>
      .cls-1 {
        fill: #616161;
        fill-rule: evenodd;
      }
    </style>
  </defs>
  <path id="_" data-name="" class="cls-1" d="M14.18,0.82A2.714,2.714,0,0,1,15,2.812v9.375A2.8,2.8,0,0,1,12.188,15H2.812a2.711,2.711,0,0,1-1.992-.82A2.71,2.71,0,0,1,0,12.187V2.812A2.712,2.712,0,0,1,.82.82,2.712,2.712,0,0,1,2.812,0h9.375A2.713,2.713,0,0,1,14.18.82ZM9.609,5.947H8.2V5.186a0.9,0.9,0,0,1,.1-0.5,0.627,0.627,0,0,1,.513-0.146H9.58V2.988H8.35A1.691,1.691,0,0,0,6.914,3.5a2.566,2.566,0,0,0-.381,1.537V5.947H5.391V7.5H6.533v4.512H8.2V7.5h1.23Z"/>
</svg>
