<svg xmlns="http://www.w3.org/2000/svg" width="80" height="80" viewBox="0 0 80 80">
  <metadata><?xpacket begin="﻿" id="W5M0MpCehiHzreSzNTczkc9d"?>
<x:xmpmeta xmlns:x="adobe:ns:meta/" x:xmptk="Adobe XMP Core 5.6-c142 79.160924, 2017/07/13-01:06:39        ">
   <rdf:RDF xmlns:rdf="http://www.w3.org/1999/02/22-rdf-syntax-ns#">
      <rdf:Description rdf:about=""/>
   </rdf:RDF>
</x:xmpmeta>
                                                                                                    
                                                                                                    
                                                                                                    
                                                                                                    
                                                                                                    
                                                                                                    
                                                                                                    
                                                                                                    
                                                                                                    
                                                                                                    
                                                                                                    
                                                                                                    
                                                                                                    
                                                                                                    
                                                                                                    
                                                                                                    
                                                                                                    
                                                                                                    
                                                                                                    
                                                                                                    
                           
<?xpacket end="w"?></metadata>
<defs>
    <style>
      .cls-1 {
        fill: #38c695;
        fill-rule: evenodd;
      }
    </style>
  </defs>
  <path id="_" data-name="" class="cls-1" d="M35.687,26.312L53.5,40.062v1.875L35.687,55.688,33.5,54.75V27.25ZM36,52.249L50.219,41,36,29.749v22.5ZM81,41A38.538,38.538,0,0,1,69.281,69.281,38.541,38.541,0,0,1,41,81,38.537,38.537,0,0,1,12.719,69.281,38.537,38.537,0,0,1,1,41,38.541,38.541,0,0,1,12.719,12.719,38.537,38.537,0,0,1,41,1,38.541,38.541,0,0,1,69.281,12.719,38.541,38.541,0,0,1,81,41Zm-2.5,0A37.344,37.344,0,0,0,41,3.5,37.344,37.344,0,0,0,3.5,41,37.345,37.345,0,0,0,41,78.5,37.345,37.345,0,0,0,78.5,41Z" transform="translate(-1 -1)"/>
</svg>
