<svg xmlns="http://www.w3.org/2000/svg" width="46" height="48" viewBox="0 0 46 48">
  <metadata><?xpacket begin="﻿" id="W5M0MpCehiHzreSzNTczkc9d"?>
<x:xmpmeta xmlns:x="adobe:ns:meta/" x:xmptk="Adobe XMP Core 5.6-c142 79.160924, 2017/07/13-01:06:39        ">
   <rdf:RDF xmlns:rdf="http://www.w3.org/1999/02/22-rdf-syntax-ns#">
      <rdf:Description rdf:about=""/>
   </rdf:RDF>
</x:xmpmeta>
                                                                                                    
                                                                                                    
                                                                                                    
                                                                                                    
                                                                                                    
                                                                                                    
                                                                                                    
                                                                                                    
                                                                                                    
                                                                                                    
                                                                                                    
                                                                                                    
                                                                                                    
                                                                                                    
                                                                                                    
                                                                                                    
                                                                                                    
                                                                                                    
                                                                                                    
                                                                                                    
                           
<?xpacket end="w"?></metadata>
<defs>
    <style>
      .cls-1 {
        fill: #38c695;
        fill-rule: evenodd;
      }
    </style>
  </defs>
  <path id="_" data-name="" class="cls-1" d="M44.883,8.262a4.852,4.852,0,0,1-2.875,1.7V44.034H40.013V9.961A4.744,4.744,0,0,1,37.137,8.2a4.95,4.95,0,0,1-1.115-3.161,4.853,4.853,0,0,1,1.467-3.572A4.877,4.877,0,0,1,41.069.008a4.745,4.745,0,0,1,3.462,1.463A4.86,4.86,0,0,1,46,5.042,4.886,4.886,0,0,1,44.883,8.262Zm-1.76-1.054A2.937,2.937,0,0,0,44,5.042a2.94,2.94,0,0,0-.88-2.166A2.818,2.818,0,0,0,41.069,2a3,3,0,0,0-3.051,3.045,3,3,0,0,0,3.051,3.045A2.821,2.821,0,0,0,43.122,7.208ZM8.855,39.818A4.961,4.961,0,0,1,9.97,42.98,4.855,4.855,0,0,1,8.5,46.551a4.871,4.871,0,0,1-3.579,1.464,4.731,4.731,0,0,1-3.462-1.464,5,5,0,0,1,2.523-8.489V3.989H5.98V38.063A4.753,4.753,0,0,1,8.855,39.818ZM7.1,45.147a3.044,3.044,0,0,0-2.171-5.211,2.817,2.817,0,0,0-2.054.878,3.106,3.106,0,0,0,0,4.333,2.817,2.817,0,0,0,2.054.878A2.955,2.955,0,0,0,7.1,45.147Zm19.833-24.3a5.04,5.04,0,0,1,0,6.323,4.75,4.75,0,0,1-2.875,1.757V44.034H21.94V28.929a4.746,4.746,0,0,1-2.875-1.757,5.041,5.041,0,0,1,0-6.323,4.749,4.749,0,0,1,2.875-1.757V3.989h2.112v15.1A4.754,4.754,0,0,1,26.928,20.85Zm-0.88,3.161A2.99,2.99,0,0,0,20.884,21.9a2.985,2.985,0,1,0,4.225,4.215A2.909,2.909,0,0,0,26.048,24.011Z"/>
</svg>
