<svg xmlns="http://www.w3.org/2000/svg" width="35" height="55" viewBox="0 0 35 55">
  <metadata><?xpacket begin="﻿" id="W5M0MpCehiHzreSzNTczkc9d"?>
<x:xmpmeta xmlns:x="adobe:ns:meta/" x:xmptk="Adobe XMP Core 5.6-c142 79.160924, 2017/07/13-01:06:39        ">
   <rdf:RDF xmlns:rdf="http://www.w3.org/1999/02/22-rdf-syntax-ns#">
      <rdf:Description rdf:about=""/>
   </rdf:RDF>
</x:xmpmeta>
                                                                                                    
                                                                                                    
                                                                                                    
                                                                                                    
                                                                                                    
                                                                                                    
                                                                                                    
                                                                                                    
                                                                                                    
                                                                                                    
                                                                                                    
                                                                                                    
                                                                                                    
                                                                                                    
                                                                                                    
                                                                                                    
                                                                                                    
                                                                                                    
                                                                                                    
                                                                                                    
                           
<?xpacket end="w"?></metadata>
<defs>
    <style>
      .cls-1 {
        fill: #38c695;
        fill-rule: evenodd;
      }
    </style>
  </defs>
  <path id="_" data-name="" class="cls-1" d="M33.346,27.906a17.442,17.442,0,0,1,2.667,9.42,17.081,17.081,0,0,1-5.16,12.462A16.772,16.772,0,0,1,18.5,54.995,16.766,16.766,0,0,1,6.154,49.787,17.074,17.074,0,0,1,.994,37.325a17.426,17.426,0,0,1,2.667-9.42,16.7,16.7,0,0,1,7.073-6.378Q5.864,9.71,5.864,7.6V0H31.142V7.6q0,1.639-4.87,13.924A16.723,16.723,0,0,1,33.346,27.906Zm-20.872-7.2a18.166,18.166,0,0,1,6.03-1.053,16.561,16.561,0,0,1,5.914,1.053Q29.17,9.475,29.171,7.6V1.987h-9.74V15.443H17.46V1.987H7.835V7.6q0,1.522,4.638,13.106h0ZM34.041,37.325a15.1,15.1,0,0,0-4.58-11.117A14.985,14.985,0,0,0,18.5,21.645,14.979,14.979,0,0,0,7.545,26.208a15.1,15.1,0,0,0-4.58,11.117,15.093,15.093,0,0,0,4.58,11.116A14.976,14.976,0,0,0,18.5,53.005a14.981,14.981,0,0,0,10.958-4.564A15.1,15.1,0,0,0,34.041,37.325Zm-3.827,0a11.449,11.449,0,0,1-3.421,8.366A11.239,11.239,0,0,1,18.5,49.144a11.236,11.236,0,0,1-8.291-3.452,11.442,11.442,0,0,1-3.421-8.366,11.445,11.445,0,0,1,3.421-8.367A11.243,11.243,0,0,1,18.5,25.507a11.245,11.245,0,0,1,8.291,3.452A11.452,11.452,0,0,1,30.215,37.325Zm-1.971,0a9.586,9.586,0,0,0-2.841-6.9A9.265,9.265,0,0,0,18.5,27.5a9.259,9.259,0,0,0-6.9,2.926,9.81,9.81,0,0,0,0,13.808,9.252,9.252,0,0,0,6.9,2.925,9.258,9.258,0,0,0,6.9-2.925A9.582,9.582,0,0,0,28.243,37.325Z" transform="translate(-1)"/>
</svg>
