<svg xmlns="http://www.w3.org/2000/svg" width="52" height="47" viewBox="0 0 52 47">
  <metadata><?xpacket begin="﻿" id="W5M0MpCehiHzreSzNTczkc9d"?>
<x:xmpmeta xmlns:x="adobe:ns:meta/" x:xmptk="Adobe XMP Core 5.6-c142 79.160924, 2017/07/13-01:06:39        ">
   <rdf:RDF xmlns:rdf="http://www.w3.org/1999/02/22-rdf-syntax-ns#">
      <rdf:Description rdf:about=""/>
   </rdf:RDF>
</x:xmpmeta>
                                                                                                    
                                                                                                    
                                                                                                    
                                                                                                    
                                                                                                    
                                                                                                    
                                                                                                    
                                                                                                    
                                                                                                    
                                                                                                    
                                                                                                    
                                                                                                    
                                                                                                    
                                                                                                    
                                                                                                    
                                                                                                    
                                                                                                    
                                                                                                    
                                                                                                    
                                                                                                    
                           
<?xpacket end="w"?></metadata>
<defs>
    <style>
      .cls-1 {
        fill: #feb960;
        fill-rule: evenodd;
      }
    </style>
  </defs>
  <path id="_" data-name="" class="cls-1" d="M28.047,36.069v3.878l9.372,5.288L36.482,47,26.993,41.71,17.5,47l-0.937-1.762,9.372-5.288V36.069H0.985V-0.005H53V36.069H28.047Zm-25.071-2H51.009V1.992H2.977v32.08ZM30.039,7.75l1.874,0.588L26.407,26.9l-6.443-8.93-4.217,8.343L10.123,14.8,6.96,26.551l-1.992-.47,4.569-16.8,6.209,12.574,3.983-7.756L25.7,22.439Zm15.23,5.993a5.919,5.919,0,0,1,1.757,4.348,5.777,5.777,0,0,1-1.757,4.23,5.883,5.883,0,0,1-4.335,1.763,6.01,6.01,0,0,1-5.975-5.993,5.919,5.919,0,0,1,1.757-4.348,5.743,5.743,0,0,1,4.217-1.762A5.882,5.882,0,0,1,45.269,13.743ZM43.8,20.911a3.848,3.848,0,0,0,0-5.641,4.034,4.034,0,0,0-2.87-1.175,4.006,4.006,0,0,0-3.983,4,3.758,3.758,0,0,0,1.23,2.82,3.889,3.889,0,0,0,2.753,1.175A4.024,4.024,0,0,0,43.8,20.911Z" transform="translate(-1)"/>
</svg>
