<svg xmlns="http://www.w3.org/2000/svg" width="28.932" height="30.999" viewBox="0 0 28 30">
  <metadata><?xpacket begin="﻿" id="W5M0MpCehiHzreSzNTczkc9d"?>
<x:xmpmeta xmlns:x="adobe:ns:meta/" x:xmptk="Adobe XMP Core 5.6-c142 79.160924, 2017/07/13-01:06:39        ">
   <rdf:RDF xmlns:rdf="http://www.w3.org/1999/02/22-rdf-syntax-ns#">
      <rdf:Description rdf:about=""/>
   </rdf:RDF>
</x:xmpmeta>
                                                                                                    
                                                                                                    
                                                                                                    
                                                                                                    
                                                                                                    
                                                                                                    
                                                                                                    
                                                                                                    
                                                                                                    
                                                                                                    
                                                                                                    
                                                                                                    
                                                                                                    
                                                                                                    
                                                                                                    
                                                                                                    
                                                                                                    
                                                                                                    
                                                                                                    
                                                                                                    
                           
<?xpacket end="w"?></metadata>
<defs>
    <style>
      .cls-1 {
        fill: #fff;
        fill-rule: evenodd;
      }
    </style>
  </defs>
  <path id="_" data-name="" class="cls-1" d="M17.3,23.663a6.245,6.245,0,0,1-1.059,4.98,5.877,5.877,0,0,1-3.178,1.934,17.264,17.264,0,0,1-2.3.41H7.82a7.116,7.116,0,0,1-1.059-.118,16.431,16.431,0,0,1-3.826-.938A5.108,5.108,0,0,1,.286,27.3a9.99,9.99,0,0,1-.294-1.231V24.894A0.521,0.521,0,0,0,.051,24.66a3.8,3.8,0,0,1,.471-1.523,2.233,2.233,0,0,1,.235-0.41q0.294-.117.618,0.41a1,1,0,0,1,.147.938,3.921,3.921,0,0,0-.235,2.051,3.184,3.184,0,0,0,1.766,2.461,5.514,5.514,0,0,0,1.883.7,18.21,18.21,0,0,0,5.121.41,8.944,8.944,0,0,0,2.825-.41,4.536,4.536,0,0,0,2.59-1.7,4.9,4.9,0,0,0,.647-2.7,4.1,4.1,0,0,0-1.471-3.339,0.4,0.4,0,0,0-.294-0.118,50.243,50.243,0,0,0-5.827-.41,16.8,16.8,0,0,0-3.708.527,1.275,1.275,0,0,0-.324.058,1.994,1.994,0,0,0-.324.118A0.554,0.554,0,0,1,3.788,21.5a1.532,1.532,0,0,1-.294-0.469,0.312,0.312,0,0,1,.029-0.352,18.836,18.836,0,0,1,7.063-.878c0.156,0,.412.02,0.765,0.058a7.864,7.864,0,0,0,.824.058,7.334,7.334,0,0,0-.588-0.5Q11.174,19.094,11,18.977A2.794,2.794,0,0,1,9.88,16.105a0.242,0.242,0,0,0-.059-0.176H9.7a7.5,7.5,0,0,1-2.649,0,6.673,6.673,0,0,1-5.474-4.453,8.44,8.44,0,0,1-.412-4.16A6.933,6.933,0,0,1,2.405,4.035,7.152,7.152,0,0,1,6.82,1.34c0.2-.039.461-0.088,0.795-0.146A4.771,4.771,0,0,1,8.35,1.105a68.655,68.655,0,0,1,8,0,0.442,0.442,0,0,1,.353.41,0.566,0.566,0,0,1-.059.556,0.6,0.6,0,0,1-.53.264H13.353a0.663,0.663,0,0,0-.294.058,1.875,1.875,0,0,1,.324.234,1.121,1.121,0,0,1,.265.293A7.094,7.094,0,0,1,16.06,7.433a7.714,7.714,0,0,1-1.766,6.035,13.882,13.882,0,0,1-1.942,1.465,6.74,6.74,0,0,0-.706.586,1.355,1.355,0,0,0-.176,2.167,4.75,4.75,0,0,0,1.177.938q2.589,1.758,2.707,1.875h0A5.31,5.31,0,0,1,17.3,23.663h0ZM13.529,12.355A5.317,5.317,0,0,0,14.824,9.25a5.631,5.631,0,0,0-.589-3.575A5.855,5.855,0,0,0,10,2.452a7.86,7.86,0,0,0-4.709.762A4.6,4.6,0,0,0,2.817,6.027,7.248,7.248,0,0,0,2.346,8.84a6.227,6.227,0,0,0,.824,3.105,5.887,5.887,0,0,0,5.474,2.872,7.264,7.264,0,0,0,4.885-2.461h0Zm14.479,2.871v0.351a0.894,0.894,0,0,1-.883.469H24.006a0.34,0.34,0,0,0-.412.351v3.164q0,0.878-.589.878a0.769,0.769,0,0,1-.647-0.878V16.34a0.26,0.26,0,0,0-.294-0.293H18.826Q18,16.047,18,15.46a0.661,0.661,0,0,1,.824-0.644H22a0.34,0.34,0,0,0,.353-0.41v-3.4a0.515,0.515,0,0,1,.647-0.528,0.5,0.5,0,0,1,.589.528v3.516a0.288,0.288,0,0,0,.353.293h3.178a1.018,1.018,0,0,1,.883.41h0Z" transform="translate(0 -1)"/>
</svg>
