<svg xmlns="http://www.w3.org/2000/svg" width="30" height="30" viewBox="0 0 30 30">
  <metadata><?xpacket begin="﻿" id="W5M0MpCehiHzreSzNTczkc9d"?>
<x:xmpmeta xmlns:x="adobe:ns:meta/" x:xmptk="Adobe XMP Core 5.6-c142 79.160924, 2017/07/13-01:06:39        ">
   <rdf:RDF xmlns:rdf="http://www.w3.org/1999/02/22-rdf-syntax-ns#">
      <rdf:Description rdf:about=""/>
   </rdf:RDF>
</x:xmpmeta>
                                                                                                    
                                                                                                    
                                                                                                    
                                                                                                    
                                                                                                    
                                                                                                    
                                                                                                    
                                                                                                    
                                                                                                    
                                                                                                    
                                                                                                    
                                                                                                    
                                                                                                    
                                                                                                    
                                                                                                    
                                                                                                    
                                                                                                    
                                                                                                    
                                                                                                    
                                                                                                    
                           
<?xpacket end="w"?></metadata>
<defs>
    <style>
      .cls-1 {
        fill: #fff;
        fill-rule: evenodd;
      }
    </style>
  </defs>
  <path id="_" data-name="" class="cls-1" d="M30,27.085a3.1,3.1,0,0,1-.645,2.227,3.276,3.276,0,0,1-2.227.7H2.812A2.491,2.491,0,0,1,0,27.261V21.285Q0,20.23.645,20.23q0.527,0.059.527,1.055v5.684a1.631,1.631,0,0,0,1.816,1.875H27.012a1.58,1.58,0,0,0,1.816-1.758V17.652a1.375,1.375,0,0,0-.234-0.908,0.933,0.933,0,0,0-.82-0.2,1.657,1.657,0,0,1-.879,0,4.918,4.918,0,0,0-3.076.323,4.238,4.238,0,0,0-1.787,2.548,5.651,5.651,0,0,1-2.842,3.34A7.131,7.131,0,0,1,14.824,23.8,8.855,8.855,0,0,1,10.2,21.93,7.116,7.116,0,0,1,7.617,18a1.686,1.686,0,0,0-1.992-1.465H1.289A1.011,1.011,0,0,1,0,15.425V2.3Q0.117,0.015,2.754.015H27.246A2.434,2.434,0,0,1,30,2.769V27.085ZM19.951,20.552a6.476,6.476,0,0,0,1.9-4.775,6.147,6.147,0,0,0-1.9-4.6,7.093,7.093,0,0,0-4.834-1.963,6.154,6.154,0,0,0-4.658,1.992,6.449,6.449,0,0,0,.059,9.433,5.69,5.69,0,0,0,4.658,1.817A6.478,6.478,0,0,0,19.951,20.552Zm8.613-5.536a1.256,1.256,0,0,0,.264-1.054Q28.71,8.453,28.828,3a1.977,1.977,0,0,0-.439-1.436,1.918,1.918,0,0,0-1.494-.381H2.93a1.951,1.951,0,0,0-1.348.381,1.748,1.748,0,0,0-.41,1.319V14.078a1.249,1.249,0,0,0,.264.938,1.2,1.2,0,0,0,.908.176q3.105,0,3.516.058a1.377,1.377,0,0,0,1.172-.118,1.968,1.968,0,0,0,.527-1.113A7.731,7.731,0,0,1,10.43,9.6a7.209,7.209,0,0,1,4.863-1.611,8.219,8.219,0,0,1,4.717,1.7,7.619,7.619,0,0,1,2.783,4.278,1.393,1.393,0,0,0,1.523,1.289,16.68,16.68,0,0,1,3.164-.058A1.3,1.3,0,0,0,28.564,15.015ZM26.484,3.882a4.884,4.884,0,0,1,.351,2.461,4,4,0,0,1-.469,2.431,3.409,3.409,0,0,1-2.285.5,3.515,3.515,0,0,1-2.373-.527,4.226,4.226,0,0,1-.5-2.579q0-1.991.41-2.343a5.446,5.446,0,0,1,2.637-.351A3.513,3.513,0,0,1,26.484,3.882ZM25.723,6.227a2.423,2.423,0,0,0-.381-1.377,1.22,1.22,0,0,0-1.26-.147,1.688,1.688,0,0,0-1.348.147,1.51,1.51,0,0,0-.352,1.318,3.227,3.227,0,0,0,.322,1.465,1.342,1.342,0,0,0,1.26.352,2.251,2.251,0,0,0,1.377-.41,1.82,1.82,0,0,0,.381-1.347h0ZM17.637,19.7a0.334,0.334,0,0,0,.029.322c0.059,0.059.019,0.128-.117,0.206a1.728,1.728,0,0,0-.234.146,1.776,1.776,0,0,1-.264.146l-0.234.058A5.5,5.5,0,0,1,15,20.934a4.967,4.967,0,0,1-3.984-2.022,4.467,4.467,0,0,1-1-4.248,1.764,1.764,0,0,1,.059-0.293,1.786,1.786,0,0,1,.117-0.351,0.577,0.577,0,0,1,.176-0.206,0.413,0.413,0,0,1,.351-0.029q0.585,0.059.469,1.113a3.832,3.832,0,0,0,1.231,3.838,4.226,4.226,0,0,0,4.043.733q1-.352,1.172.235h0Z"/>
</svg>
