<svg xmlns="http://www.w3.org/2000/svg" width="6915.377" height="6915.347" viewBox="0 0 6915.377 6915.347">
  <defs>
    <style>
      .cls-1 {
        fill: #fff;
        fill-rule: evenodd;
      }
    </style>
  </defs>
  <path id="_" data-name="" class="cls-1" d="M3710.56,3494.42h1836.9v216.15H3710.56V5547.48H3494.45V3710.57H1657.55V3494.42h1836.9V1657.6h216.11V3494.42ZM7060.2,3602.49q0,1431.585-1013,2444.7Q5034.205,7060.26,3602.5,7060.17q-1431.48,0-2444.7-1012.98Q144.809,5034.27,144.808,3602.49q0-1431.72,1012.992-2444.7Q2170.81,144.869,3602.5,144.819q1431.81,0,2444.7,1012.971Q7060.2,2170.875,7060.2,3602.49Zm-216.11,0q0-1323.78-945.46-2296.14Q4926.15,360.83,3602.5,360.971q-1323.54,0-2296.12,945.379Q361.123,2278.89,360.913,3602.49q0,1323.51,945.467,2296.15,972.465,945.24,2296.12,945.47,1323.87,0,2296.13-945.47h0Q6844.2,4926.235,6844.09,3602.49Z" transform="translate(-144.813 -144.813)"/>
</svg>
