<svg xmlns="http://www.w3.org/2000/svg" width="55" height="43" viewBox="0 0 55 43">
  <metadata><?xpacket begin="﻿" id="W5M0MpCehiHzreSzNTczkc9d"?>
<x:xmpmeta xmlns:x="adobe:ns:meta/" x:xmptk="Adobe XMP Core 5.6-c142 79.160924, 2017/07/13-01:06:39        ">
   <rdf:RDF xmlns:rdf="http://www.w3.org/1999/02/22-rdf-syntax-ns#">
      <rdf:Description rdf:about=""/>
   </rdf:RDF>
</x:xmpmeta>
                                                                                                    
                                                                                                    
                                                                                                    
                                                                                                    
                                                                                                    
                                                                                                    
                                                                                                    
                                                                                                    
                                                                                                    
                                                                                                    
                                                                                                    
                                                                                                    
                                                                                                    
                                                                                                    
                                                                                                    
                                                                                                    
                                                                                                    
                                                                                                    
                                                                                                    
                                                                                                    
                           
<?xpacket end="w"?></metadata>
<defs>
    <style>
      .cls-1 {
        fill: #b27cf5;
        fill-rule: evenodd;
      }
    </style>
  </defs>
  <path id="_" data-name="" class="cls-1" d="M46.406,43H0V6.867H46.406V43ZM1.719,8.587v22.9L12.891,20.2,25.137,34.181l8.486-5.161,11.065,9.57v-30H1.719Zm42.969,32.69v-0.43L33.408,31.17l-8.7,5.162L12.891,22.783,1.719,33.858v7.42H44.688ZM7.734-.015H55V36.117H47.266V34.4h6.016V1.705H9.453v4.3H7.734V-0.015ZM29.219,18.911a5.164,5.164,0,0,1,8.809-3.656,5.2,5.2,0,0,1,0,7.312A5.156,5.156,0,0,1,29.219,18.911Zm1.719,0a3.438,3.438,0,1,0,6.875,0A3.438,3.438,0,1,0,30.937,18.911Z"/>
</svg>
