<svg xmlns="http://www.w3.org/2000/svg" width="44" height="40" viewBox="0 0 44 40">
  <metadata><?xpacket begin="﻿" id="W5M0MpCehiHzreSzNTczkc9d"?>
<x:xmpmeta xmlns:x="adobe:ns:meta/" x:xmptk="Adobe XMP Core 5.6-c142 79.160924, 2017/07/13-01:06:39        ">
   <rdf:RDF xmlns:rdf="http://www.w3.org/1999/02/22-rdf-syntax-ns#">
      <rdf:Description rdf:about=""/>
   </rdf:RDF>
</x:xmpmeta>
                                                                                                    
                                                                                                    
                                                                                                    
                                                                                                    
                                                                                                    
                                                                                                    
                                                                                                    
                                                                                                    
                                                                                                    
                                                                                                    
                                                                                                    
                                                                                                    
                                                                                                    
                                                                                                    
                                                                                                    
                                                                                                    
                                                                                                    
                                                                                                    
                                                                                                    
                                                                                                    
                           
<?xpacket end="w"?></metadata>
<defs>
    <style>
      .cls-1 {
        fill: #feb960;
        fill-rule: evenodd;
      }
    </style>
  </defs>
  <path id="_" data-name="" class="cls-1" d="M27.673,39.985H0v-40H27.673v40ZM1.262,1.235v3.75H26.415V1.235H1.262Zm0,5v25H26.415v-25H1.262Zm25.153,32.5V32.485H1.262v6.251H26.415Zm-15.092-35h5.031V2.485H11.323v1.25Zm4.4,31.874a1.8,1.8,0,0,1-.55,1.328,1.906,1.906,0,0,1-2.672,0,1.878,1.878,0,0,1,0-2.656A1.887,1.887,0,0,1,15.725,35.61Zm-1.886-.624a0.625,0.625,0,1,0,0,1.249A0.625,0.625,0,1,0,13.839,34.985Zm14.124-25H44v30H27.963v-30ZM43.054,39.048V34.36H28.906v4.688H43.054Zm0-5.625V14.673H28.906v18.75H43.054Zm-14.148-22.5v2.812H43.054V10.923H28.906ZM34.094,12.8h3.773V11.86H34.094V12.8Zm3.3,23.906a1.354,1.354,0,0,1-.413,1,1.429,1.429,0,0,1-2,0,1.409,1.409,0,0,1,0-1.992A1.415,1.415,0,0,1,37.395,36.7Zm-1.415-.469a0.469,0.469,0,1,0,.471.469A0.416,0.416,0,0,0,35.98,36.235Z"/>
</svg>
