<svg xmlns="http://www.w3.org/2000/svg" width="15" height="15" viewBox="0 0 15 15">
  <metadata><?xpacket begin="﻿" id="W5M0MpCehiHzreSzNTczkc9d"?>
<x:xmpmeta xmlns:x="adobe:ns:meta/" x:xmptk="Adobe XMP Core 5.6-c142 79.160924, 2017/07/13-01:06:39        ">
   <rdf:RDF xmlns:rdf="http://www.w3.org/1999/02/22-rdf-syntax-ns#">
      <rdf:Description rdf:about=""/>
   </rdf:RDF>
</x:xmpmeta>
                                                                                                    
                                                                                                    
                                                                                                    
                                                                                                    
                                                                                                    
                                                                                                    
                                                                                                    
                                                                                                    
                                                                                                    
                                                                                                    
                                                                                                    
                                                                                                    
                                                                                                    
                                                                                                    
                                                                                                    
                                                                                                    
                                                                                                    
                                                                                                    
                                                                                                    
                                                                                                    
                           
<?xpacket end="w"?></metadata>
<defs>
    <style>
      .cls-1 {
        fill: #feb960;
        fill-rule: evenodd;
      }
    </style>
  </defs>
  <path id="_" data-name="" class="cls-1" d="M14.987,7.512A7.237,7.237,0,0,1,12.8,12.823a7.214,7.214,0,0,1-5.3,2.188,7.212,7.212,0,0,1-5.3-2.187A7.235,7.235,0,0,1,.012,7.512,7.238,7.238,0,0,1,2.2,2.2,7.215,7.215,0,0,1,7.5.012,7.217,7.217,0,0,1,12.8,2.2,7.24,7.24,0,0,1,14.987,7.512Zm-1.248,0A6.023,6.023,0,0,0,11.906,3.1,6,6,0,0,0,7.5,1.262,6,6,0,0,0,3.093,3.1,6.021,6.021,0,0,0,1.26,7.512a6.022,6.022,0,0,0,1.833,4.414A6,6,0,0,0,7.5,13.761a6,6,0,0,0,4.406-1.835A6.024,6.024,0,0,0,13.739,7.512ZM7.5,3.761a3.61,3.61,0,0,1,2.652,1.094,3.621,3.621,0,0,1,1.092,2.656,3.618,3.618,0,0,1-1.092,2.655A3.606,3.606,0,0,1,7.5,11.261a3.6,3.6,0,0,1-2.652-1.094A3.615,3.615,0,0,1,3.756,7.512,3.618,3.618,0,0,1,4.848,4.855,3.607,3.607,0,0,1,7.5,3.761Z"/>
</svg>
