<svg xmlns="http://www.w3.org/2000/svg" width="46" height="50" viewBox="0 0 46 50">
  <metadata><?xpacket begin="﻿" id="W5M0MpCehiHzreSzNTczkc9d"?>
<x:xmpmeta xmlns:x="adobe:ns:meta/" x:xmptk="Adobe XMP Core 5.6-c142 79.160924, 2017/07/13-01:06:39        ">
   <rdf:RDF xmlns:rdf="http://www.w3.org/1999/02/22-rdf-syntax-ns#">
      <rdf:Description rdf:about=""/>
   </rdf:RDF>
</x:xmpmeta>
                                                                                                    
                                                                                                    
                                                                                                    
                                                                                                    
                                                                                                    
                                                                                                    
                                                                                                    
                                                                                                    
                                                                                                    
                                                                                                    
                                                                                                    
                                                                                                    
                                                                                                    
                                                                                                    
                                                                                                    
                                                                                                    
                                                                                                    
                                                                                                    
                                                                                                    
                                                                                                    
                           
<?xpacket end="w"?></metadata>
<defs>
    <style>
      .cls-1 {
        fill: #38c695;
        fill-rule: evenodd;
      }
    </style>
  </defs>
  <path id="_" data-name="" class="cls-1" d="M8.263,30.31A17.406,17.406,0,0,0,3.049,43v4H24.976v1.954H1V43A19.612,19.612,0,0,1,5.1,30.8a18.8,18.8,0,0,1,10.33-7.031,12.871,12.871,0,0,1-4.775-4.394A11.343,11.343,0,0,1,8.8,13.025a11.5,11.5,0,0,1,3.557-8.5,11.585,11.585,0,0,1,8.43-3.516,11.539,11.539,0,0,1,8.478,3.516,11.585,11.585,0,0,1,3.508,8.5,11.814,11.814,0,0,1-1.8,6.4,11.528,11.528,0,0,1-4.824,4.346,19.317,19.317,0,0,1,9.063,5.273H32.187a17.4,17.4,0,0,0-11.207-4A17.2,17.2,0,0,0,8.263,30.31ZM20.98,22.986A9.754,9.754,0,0,0,28.094,20.1a9.548,9.548,0,0,0,2.924-7.08,9.556,9.556,0,0,0-2.924-7.08,9.763,9.763,0,0,0-7.114-2.88,9.6,9.6,0,0,0-7.065,2.88,9.636,9.636,0,0,0-2.875,7.08,9.628,9.628,0,0,0,2.875,7.08A9.588,9.588,0,0,0,20.98,22.986ZM47,45.056H40.958v5.957H39.009V45.056H32.967V43h6.042V37.048h1.949V43H47v2.051Z" transform="translate(-1 -1)"/>
</svg>
