<svg xmlns="http://www.w3.org/2000/svg" width="15" height="15" viewBox="0 0 15 15">
  <metadata><?xpacket begin="﻿" id="W5M0MpCehiHzreSzNTczkc9d"?>
<x:xmpmeta xmlns:x="adobe:ns:meta/" x:xmptk="Adobe XMP Core 5.6-c142 79.160924, 2017/07/13-01:06:39        ">
   <rdf:RDF xmlns:rdf="http://www.w3.org/1999/02/22-rdf-syntax-ns#">
      <rdf:Description rdf:about=""/>
   </rdf:RDF>
</x:xmpmeta>
                                                                                                    
                                                                                                    
                                                                                                    
                                                                                                    
                                                                                                    
                                                                                                    
                                                                                                    
                                                                                                    
                                                                                                    
                                                                                                    
                                                                                                    
                                                                                                    
                                                                                                    
                                                                                                    
                                                                                                    
                                                                                                    
                                                                                                    
                                                                                                    
                                                                                                    
                                                                                                    
                           
<?xpacket end="w"?></metadata>
<defs>
    <style>
      .cls-1 {
        fill: #38c695;
        fill-rule: evenodd;
      }
    </style>
  </defs>
  <path id="_" data-name="" class="cls-1" d="M15,7.5a7.242,7.242,0,0,1-2.186,5.316A7.223,7.223,0,0,1,7.5,15.007a7.221,7.221,0,0,1-5.309-2.189A7.24,7.24,0,0,1,.006,7.5,7.243,7.243,0,0,1,2.192,2.185,7.224,7.224,0,0,1,7.5,0a7.225,7.225,0,0,1,5.309,2.188A7.245,7.245,0,0,1,15,7.5Zm-1.249,0a6.03,6.03,0,0,0-1.835-4.417A6.011,6.011,0,0,0,7.5,1.247,6.01,6.01,0,0,0,3.09,3.084,6.027,6.027,0,0,0,1.255,7.5,6.024,6.024,0,0,0,3.09,11.919,6.007,6.007,0,0,0,7.5,13.756a6.008,6.008,0,0,0,4.411-1.837A6.026,6.026,0,0,0,13.748,7.5ZM7.5,3.749A3.735,3.735,0,0,1,11.249,7.5a3.622,3.622,0,0,1-1.093,2.658A3.61,3.61,0,0,1,7.5,11.255,3.608,3.608,0,0,1,4.847,10.16,3.62,3.62,0,0,1,3.754,7.5,3.622,3.622,0,0,1,4.847,4.843,3.615,3.615,0,0,1,7.5,3.749Z"/>
</svg>
