<svg xmlns="http://www.w3.org/2000/svg" width="15" height="15" viewBox="0 0 15 15">
  <metadata><?xpacket begin="﻿" id="W5M0MpCehiHzreSzNTczkc9d"?>
<x:xmpmeta xmlns:x="adobe:ns:meta/" x:xmptk="Adobe XMP Core 5.6-c142 79.160924, 2017/07/13-01:06:39        ">
   <rdf:RDF xmlns:rdf="http://www.w3.org/1999/02/22-rdf-syntax-ns#">
      <rdf:Description rdf:about=""/>
   </rdf:RDF>
</x:xmpmeta>
                                                                                                    
                                                                                                    
                                                                                                    
                                                                                                    
                                                                                                    
                                                                                                    
                                                                                                    
                                                                                                    
                                                                                                    
                                                                                                    
                                                                                                    
                                                                                                    
                                                                                                    
                                                                                                    
                                                                                                    
                                                                                                    
                                                                                                    
                                                                                                    
                                                                                                    
                                                                                                    
                           
<?xpacket end="w"?></metadata>
<defs>
    <style>
      .cls-1 {
        fill: #fc5f45;
        fill-rule: evenodd;
      }
    </style>
  </defs>
  <path id="_" data-name="" class="cls-1" d="M15,7.485A7.233,7.233,0,0,1,12.811,12.8,7.224,7.224,0,0,1,7.5,14.985,7.222,7.222,0,0,1,2.192,12.8,7.231,7.231,0,0,1,.006,7.485,7.236,7.236,0,0,1,2.192,2.172,7.225,7.225,0,0,1,7.5-.015a7.226,7.226,0,0,1,5.309,2.187A7.237,7.237,0,0,1,15,7.485Zm-1.249,0a6.023,6.023,0,0,0-1.835-4.415A6.017,6.017,0,0,0,7.5,1.235,6.016,6.016,0,0,0,3.09,3.071,6.021,6.021,0,0,0,1.255,7.485,6.019,6.019,0,0,0,3.09,11.9,6.009,6.009,0,0,0,7.5,13.735,6.01,6.01,0,0,0,11.913,11.9,6.021,6.021,0,0,0,13.748,7.485ZM7.5,3.735a3.732,3.732,0,0,1,3.748,3.75A3.734,3.734,0,0,1,7.5,11.235a3.734,3.734,0,0,1-3.748-3.75A3.732,3.732,0,0,1,7.5,3.735Z"/>
</svg>
