<svg xmlns="http://www.w3.org/2000/svg" width="50" height="44" viewBox="0 0 50 44">
  <metadata><?xpacket begin="﻿" id="W5M0MpCehiHzreSzNTczkc9d"?>
<x:xmpmeta xmlns:x="adobe:ns:meta/" x:xmptk="Adobe XMP Core 5.6-c142 79.160924, 2017/07/13-01:06:39        ">
   <rdf:RDF xmlns:rdf="http://www.w3.org/1999/02/22-rdf-syntax-ns#">
      <rdf:Description rdf:about=""/>
   </rdf:RDF>
</x:xmpmeta>
                                                                                                    
                                                                                                    
                                                                                                    
                                                                                                    
                                                                                                    
                                                                                                    
                                                                                                    
                                                                                                    
                                                                                                    
                                                                                                    
                                                                                                    
                                                                                                    
                                                                                                    
                                                                                                    
                                                                                                    
                                                                                                    
                                                                                                    
                                                                                                    
                                                                                                    
                                                                                                    
                           
<?xpacket end="w"?></metadata>
<defs>
    <style>
      .cls-1 {
        fill: #feb960;
        fill-rule: evenodd;
      }
    </style>
  </defs>
  <path id="_" data-name="" class="cls-1" d="M50.99,18.235H49.037V45H2.962V18.235H1.009v-7.69H16.921a5.562,5.562,0,0,1-1.464-3.8A5.661,5.661,0,0,1,21.216,1,5.291,5.291,0,0,1,26,3.439,5.29,5.29,0,0,1,30.783,1a5.661,5.661,0,0,1,5.759,5.743,5.562,5.562,0,0,1-1.464,3.8H50.99v7.69ZM28.1,4.023a3.809,3.809,0,0,0-1.122,2.725v3.8h3.807a3.832,3.832,0,0,0,2.733-1.12,3.571,3.571,0,0,0,1.171-2.677,3.83,3.83,0,0,0-3.9-3.894A3.59,3.59,0,0,0,28.1,4.023Zm-9.615,5.4a3.829,3.829,0,0,0,2.733,1.12h3.807v-3.8A3.815,3.815,0,0,0,23.9,4.023a3.594,3.594,0,0,0-2.684-1.169,3.83,3.83,0,0,0-3.9,3.894A3.571,3.571,0,0,0,18.483,9.425ZM2.962,16.289H25.023v-3.8H2.962v3.8ZM4.816,43.155H25.023V18.235H4.816v24.92Zm42.366-24.92H26.976v24.92H47.183V18.235Zm1.855-5.743H26.976v3.8H49.037v-3.8Z" transform="translate(-1 -1)"/>
</svg>
