<svg xmlns="http://www.w3.org/2000/svg" width="15" height="15" viewBox="0 0 15 15">
  <metadata><?xpacket begin="﻿" id="W5M0MpCehiHzreSzNTczkc9d"?>
<x:xmpmeta xmlns:x="adobe:ns:meta/" x:xmptk="Adobe XMP Core 5.6-c142 79.160924, 2017/07/13-01:06:39        ">
   <rdf:RDF xmlns:rdf="http://www.w3.org/1999/02/22-rdf-syntax-ns#">
      <rdf:Description rdf:about=""/>
   </rdf:RDF>
</x:xmpmeta>
                                                                                                    
                                                                                                    
                                                                                                    
                                                                                                    
                                                                                                    
                                                                                                    
                                                                                                    
                                                                                                    
                                                                                                    
                                                                                                    
                                                                                                    
                                                                                                    
                                                                                                    
                                                                                                    
                                                                                                    
                                                                                                    
                                                                                                    
                                                                                                    
                                                                                                    
                                                                                                    
                           
<?xpacket end="w"?></metadata>
<defs>
    <style>
      .cls-1 {
        fill: #616161;
        fill-rule: evenodd;
      }
    </style>
  </defs>
  <path id="_" data-name="" class="cls-1" d="M14.18,0.82A2.713,2.713,0,0,1,15,2.812v9.375A2.8,2.8,0,0,1,12.188,15H2.812a2.711,2.711,0,0,1-1.992-.82A2.71,2.71,0,0,1,0,12.187V2.812A2.711,2.711,0,0,1,.82.82,2.712,2.712,0,0,1,2.812,0h9.375A2.713,2.713,0,0,1,14.18.82ZM12.158,4.863a5.03,5.03,0,0,1-1.055.293,1.708,1.708,0,0,0,.791-1.026,3.377,3.377,0,0,1-1.172.44,1.733,1.733,0,0,0-1.348-.586,1.754,1.754,0,0,0-1.3.557A1.792,1.792,0,0,0,7.529,5.83a2.432,2.432,0,0,0,.059.439A5.133,5.133,0,0,1,3.779,4.336a1.9,1.9,0,0,0-.264.937A1.731,1.731,0,0,0,4.365,6.8a1.587,1.587,0,0,1-.85-0.234V6.591A1.764,1.764,0,0,0,3.94,7.749a1.894,1.894,0,0,0,1.069.659,3.483,3.483,0,0,1-.5.059,1.542,1.542,0,0,1-.352-0.03A1.753,1.753,0,0,0,5.889,9.726a3.653,3.653,0,0,1-2.285.791c-0.059,0-.137-0.005-0.234-0.015S3.2,10.488,3.164,10.488a5.136,5.136,0,0,0,2.812.821A4.865,4.865,0,0,0,9.814,9.682,5.338,5.338,0,0,0,11.25,6.064a0.683,0.683,0,0,0-.015-0.132,0.587,0.587,0,0,1-.015-0.1,3.425,3.425,0,0,0,.938-0.966h0Z"/>
</svg>
