<svg xmlns="http://www.w3.org/2000/svg" width="15" height="15" viewBox="0 0 15 15">
  <metadata><?xpacket begin="﻿" id="W5M0MpCehiHzreSzNTczkc9d"?>
<x:xmpmeta xmlns:x="adobe:ns:meta/" x:xmptk="Adobe XMP Core 5.6-c142 79.160924, 2017/07/13-01:06:39        ">
   <rdf:RDF xmlns:rdf="http://www.w3.org/1999/02/22-rdf-syntax-ns#">
      <rdf:Description rdf:about=""/>
   </rdf:RDF>
</x:xmpmeta>
                                                                                                    
                                                                                                    
                                                                                                    
                                                                                                    
                                                                                                    
                                                                                                    
                                                                                                    
                                                                                                    
                                                                                                    
                                                                                                    
                                                                                                    
                                                                                                    
                                                                                                    
                                                                                                    
                                                                                                    
                                                                                                    
                                                                                                    
                                                                                                    
                                                                                                    
                                                                                                    
                           
<?xpacket end="w"?></metadata>
<defs>
    <style>
      .cls-1 {
        fill: #616161;
        fill-rule: evenodd;
      }
    </style>
  </defs>
  <path id="_" data-name="" class="cls-1" d="M14.18,0.82A2.714,2.714,0,0,1,15,2.812v9.375A2.8,2.8,0,0,1,12.188,15H2.812a2.711,2.711,0,0,1-1.992-.82A2.71,2.71,0,0,1,0,12.187V2.812A2.712,2.712,0,0,1,.82.82,2.712,2.712,0,0,1,2.812,0h9.375A2.713,2.713,0,0,1,14.18.82ZM12.188,3.164a0.31,0.31,0,0,0-.352-0.351H3.164a0.31,0.31,0,0,0-.352.351v8.672a0.31,0.31,0,0,0,.352.351h8.672a0.31,0.31,0,0,0,.352-0.351V3.164ZM9.375,5.625H11.25V3.749H9.375V5.625Zm-1.875,0A1.9,1.9,0,0,1,9.375,7.5,1.9,1.9,0,0,1,7.5,9.375,1.9,1.9,0,0,1,5.625,7.5,1.9,1.9,0,0,1,7.5,5.625Zm2.725,1.407H11.25v4.218H3.75V7.031H4.775a3.535,3.535,0,0,0-.059.468,2.665,2.665,0,0,0,.82,1.978,2.7,2.7,0,0,0,1.963.805,2.7,2.7,0,0,0,1.963-.805,2.666,2.666,0,0,0,.82-1.978,3.62,3.62,0,0,0-.059-0.468h0Z"/>
</svg>
